<svg width="180" height="180" viewBox="0 0 180 180" fill="none" xmlns="http://www.w3.org/2000/svg">
<rect x="0.005" y="0.005" width="179.99" height="179.99" stroke="#E3E3E3" stroke-opacity="0.01" stroke-width="0.01"/>
<g clip-path="url(#clip0_4230_12166)">
<path fill-rule="evenodd" clip-rule="evenodd" d="M41.2027 110.625H43.8982V96.225H41.2027V110.625ZM51.0836 110.409H53.4978V101.323L63.66 110.625V96.441H61.2525V105.371L51.0836 96.225V110.409ZM69.1713 106.922C70.4853 107.945 72.0626 108.537 73.7535 108.537C75.4005 108.537 76.5558 107.97 76.5558 106.718C76.5558 105.627 75.819 105.199 74.5286 104.721L72.4395 103.995C70.5135 103.311 69.0487 102.312 69.0487 100.016C69.0487 97.5604 71.2661 96.225 73.9177 96.225C75.5422 96.225 77.0227 96.6334 78.1792 97.3567V99.7924C76.9766 98.9036 75.6603 98.2916 73.9695 98.2916C72.5137 98.2916 71.4258 98.835 71.4258 99.9679C71.4258 100.992 72.1087 101.401 73.3113 101.813L75.639 102.63C77.8946 103.423 78.9296 104.652 78.9296 106.675C78.9296 109.22 76.6908 110.625 73.7535 110.625C71.823 110.625 70.1816 110.085 69.1713 109.403V106.922ZM85.2183 110.625H87.9127V96.225H85.2183V110.625ZM100.553 108.446C103.591 108.446 105.214 106.497 105.214 103.422C105.214 100.323 103.59 98.3816 100.553 98.3816H97.5495V108.446H100.553ZM95.097 96.225H100.643C104.913 96.225 107.673 99.0375 107.673 103.422C107.673 107.809 104.913 110.625 100.643 110.625H95.097V96.225ZM121.149 96.225V98.3816H114.627V101.847H120.476V103.978H114.626V108.446H121.149V110.625H112.165V96.225H121.149ZM130.713 102.746H133.387C134.97 102.746 135.862 101.877 135.862 100.542C135.862 99.2063 134.97 98.3366 133.387 98.3366H130.713V102.747V102.746ZM130.713 104.782V110.625H128.334V96.225H133.432C136.339 96.225 138.22 97.7224 138.22 100.542C138.22 102.953 137.176 104.337 134.952 104.693L140.011 110.625H137.305L132.406 104.783H130.714L130.713 104.782ZM40.2611 82.0388C41.3152 81.6529 42.1365 80.4952 42.1365 78.9034C42.1365 76.2506 40.2611 74.8759 37.2607 74.8759H32.2207V89.6842H37.7287C40.7291 89.6842 42.6045 88.2127 42.6045 85.4396C42.6045 83.8714 41.6201 82.4966 40.2611 82.0388ZM34.5877 81.0983V77.0471H37.2382C38.9032 77.0471 39.7931 77.6501 39.7931 79.0485C39.7931 80.4469 38.9021 81.0983 37.2382 81.0983H34.5877ZM34.5877 83.1728H37.6815C39.324 83.1728 40.2138 83.9918 40.2138 85.3429C40.2138 86.6693 39.3228 87.5141 37.6826 87.5141H34.5888V83.1716L34.5877 83.1728ZM53.6013 89.925C57.0472 89.925 59.3681 87.8505 59.3681 83.7994V74.8759H56.9302V83.5091C56.9302 86.3554 55.758 87.6829 53.6013 87.6829C51.4447 87.6829 50.2736 86.3554 50.2736 83.5091V74.8759H47.8357V83.7746C47.8357 87.8505 50.1791 89.925 53.6013 89.925ZM65.1078 88.6223C66.1158 89.3468 67.7572 89.925 69.6787 89.925C72.6093 89.925 74.8357 88.4288 74.8357 85.7288C74.8357 83.5822 73.8052 82.2795 71.5541 81.4358L69.2343 80.5673C68.0385 80.1341 67.359 79.6999 67.359 78.6142C67.359 77.4082 68.4367 76.83 69.8902 76.83C71.5777 76.83 72.8906 77.4802 74.0865 78.4219V75.84C72.9378 75.0694 71.4607 74.6351 69.843 74.6351C67.1947 74.6351 64.9908 76.0582 64.9908 78.6626C64.9908 81.0982 66.4443 82.1591 68.3658 82.8825L70.4527 83.6543C71.742 84.1605 72.4687 84.6195 72.4687 85.7771C72.4687 87.1035 71.3201 87.7065 69.6787 87.7065C67.9912 87.7065 66.4207 87.0787 65.1078 85.9943V88.6223ZM83.5466 74.8759H81.1098V89.6831H83.5466V74.8759ZM90.5013 89.6651H92.8503V80.0318L102.737 89.8946V74.8534H100.395V84.3225L90.5013 74.625V89.6651ZM117.97 74.8792V77.0966H111.641V80.6606H117.317V82.8533H111.641V87.4466H117.97V89.6876H109.252V74.8792H117.97ZM123.646 88.6121C124.654 89.3366 126.294 89.9149 128.217 89.9149C131.146 89.9149 133.374 88.4198 133.374 85.7186C133.374 83.5721 132.342 82.2705 130.092 81.4256L127.771 80.5583C126.576 80.124 125.896 79.6897 125.896 78.6041C125.896 77.3981 126.974 76.8199 128.427 76.8199C130.115 76.8199 131.428 77.4712 132.624 78.4117V75.831C131.475 75.0593 129.998 74.625 128.38 74.625C125.732 74.625 123.528 76.0481 123.528 78.6525C123.528 81.0881 124.981 82.149 126.903 82.8724L128.99 83.6441C130.279 84.1504 131.006 84.6094 131.006 85.767C131.006 87.0934 129.858 87.6964 128.216 87.6964C126.528 87.6964 124.958 87.0697 123.646 85.9841V88.6121ZM138.368 88.6121C139.376 89.3366 141.017 89.9149 142.939 89.9149C145.869 89.9149 148.096 88.4198 148.096 85.7186C148.096 83.5721 147.064 82.2705 144.814 81.4256L142.493 80.5583C141.298 80.124 140.618 79.6897 140.618 78.6041C140.618 77.3981 141.697 76.8199 143.149 76.8199C144.837 76.8199 146.151 77.4712 147.345 78.4117V75.831C146.198 75.0593 144.721 74.625 143.103 74.625C140.454 74.625 138.251 76.0481 138.251 78.6525C138.251 81.0881 139.704 82.149 141.626 82.8724L143.713 83.6441C145.002 84.1504 145.729 84.6094 145.729 85.767C145.729 87.0934 144.58 87.6964 142.939 87.6964C141.251 87.6964 139.681 87.0697 138.368 85.9841V88.6121Z" fill="white"/>
</g>
<defs>
<clipPath id="clip0_4230_12166">
<rect width="115.875" height="36" fill="white" transform="translate(32.2207 74.625)"/>
</clipPath>
</defs>
</svg>
