<svg width="180" height="180" viewBox="0 0 180 180" fill="none" xmlns="http://www.w3.org/2000/svg">
<rect x="0.005" y="0.005" width="179.99" height="179.99" stroke="#E3E3E3" stroke-opacity="0.01" stroke-width="0.01"/>
<g clip-path="url(#clip0_4230_12233)">
<path fill-rule="evenodd" clip-rule="evenodd" d="M37.6286 88.1707V101.984L43.9637 104V88.1707H48.0389V101.984L54.3369 104L58.4492 98.4H54.374V84.7733L48.0759 82.5707L43.9637 87.424V84.7733L37.6656 82.5707L33.5534 87.424V84.7733L27.2553 82.5707L23.1431 88.1707H27.2183V101.984L33.5534 104V88.1707H37.6286ZM105.647 98.4V84.5867L99.3124 82.5707V101.797L105.61 104L109.723 99.1467V101.797L116.021 104L120.133 98.4H116.058V84.5867L109.723 82.5707V98.4H105.647ZM152.401 85.3333L146.214 82.5707L138.879 86.08L146.214 88.8427L136.137 93.7333V101.723L142.473 104L146.214 99.1093V101.797L152.549 104L156.476 98.3627H152.401V85.3333ZM66.6366 104L73.8979 101.088L66.6366 98.3627V94.4427L76.1578 89.8133L70.7489 82.5707L60.3015 87.6107V101.275L66.6366 104ZM134.767 97.952L127.061 95.6L134.285 86.3413L125.245 82.5707L120.503 88.6187L128.246 91.008L120.874 100.229L130.025 104L134.767 97.952ZM142.473 98.4V92.8747L146.214 91.0827V98.4H142.473ZM66.6366 86.192L69.8227 90.5973L66.6366 92.128V86.192ZM77.7879 101.275L84.123 104L94.5333 99.8187V83.28L77.7879 76V82.448L88.1982 86.592V99.856L84.123 98.3627V86.7147L77.7879 88.7307V101.275Z" fill="white"/>
</g>
<defs>
<clipPath id="clip0_4230_12233">
<rect width="133.333" height="28" fill="white" transform="translate(23.1431 76)"/>
</clipPath>
</defs>
</svg>
