<svg width="180" height="180" viewBox="0 0 180 180" fill="none" xmlns="http://www.w3.org/2000/svg">
<g clip-path="url(#clip0_4395_15979)">
<path d="M16.8174 83.3727L11.6689 102.29H16.4669L19.4309 100.105L19.7437 102.29H24.5011L25.2429 101.666L25.6719 101.706L26.0224 102.29H35.8131L38.4266 100.379L38.1139 102.29H42.7942L46.305 99.8339L45.7204 102.29H50.479L55.511 98.5075L61.9847 85.2451L63.0391 94.2564L60.776 102.29H66.0422L69.9036 99.3264C69.9036 99.3264 70.9958 101.94 73.2574 102.29C73.8813 102.408 74.9343 102.447 74.9343 102.447C75.7152 102.447 76.1836 102.439 76.9631 102.29C77.9082 102.112 78.4185 101.888 79.3032 101.511C80.5441 100.982 82.3065 99.7947 82.3065 99.7947L81.8004 102.29H86.7919L89.289 100.574L88.86 102.29H99.7416L102.394 100.379L103.018 102.29H108.987L113.706 98.5076L111.483 88.0929L118.153 79.6678H112.497L109.533 81.8915L110.04 79.6286H104.268L103.213 80.5652C103.213 80.5652 102.394 80.0969 102.044 79.8627C101.692 79.668 100.796 79.668 100.796 79.668H91.3178L89.9128 80.7602C89.9128 80.7602 88.9384 79.7465 87.6513 79.4731C85.5047 78.9669 85.1149 79.1603 84.1012 79.1603C82.3458 79.1603 80.3562 79.9805 80.3562 79.9805L80.3959 79.6288L74.5069 79.6685L71.5807 82.0086L71.5021 79.6685H65.7295L63.7792 81.1126L64.326 79.6685H59.294L56.7982 81.4632L56.7195 79.6685H51.571L49.5815 81.1505L49.4257 79.6293H34.9941L34.2524 80.0204L34.4471 79.6293L29.338 79.669L27.3484 81.1133L27.0749 79.6298H21.4972L16.8169 83.3748L16.8174 83.3727Z" fill="#3E3F40" stroke="#3E3F40" stroke-width="1.44095" stroke-miterlimit="3.864"/>
<path d="M123.054 79.6367L118.686 83.1083L113.342 102.299H118.491L123.328 98.5933L124.029 96.4481C124.029 96.4481 125.009 96.4759 125.629 96.4083C126.198 96.3467 127.072 96.1365 127.072 96.1365C127.072 96.1365 126.564 98.5776 127.229 99.8801C128.125 101.638 129.685 102.143 131.675 102.299C133.469 102.455 134.462 102.267 136.121 101.714C137.632 101.211 139.71 99.7637 139.71 99.7637C139.71 99.7637 140.679 101.052 141.543 101.558C142.509 102.122 143.2 102.189 144.312 102.299C146.077 102.472 147.159 102.259 148.799 101.558C150.553 100.817 153.518 98.7878 153.518 98.7878L152.66 102.143H157.535L162.293 98.5144L165.647 86.7746L169.666 83.3423L170.68 79.6366H159.485L158.354 80.4161C158.354 80.4161 157.504 79.8763 156.911 79.6366C155.698 79.1458 154.903 79.1093 153.595 79.129C151.905 79.1568 150.878 79.3547 149.383 80.1441C148.461 80.6307 147.238 81.7425 147.238 81.7425C147.238 81.7425 146.496 80.2997 145.638 79.9099C144.117 79.2075 143.113 79.1949 141.465 79.2467C139.989 79.2944 139.127 79.4669 137.76 80.0263C136.572 80.5128 134.951 81.7425 134.951 81.7425C134.951 81.7425 134.404 80.7288 134.015 80.2997C133.664 79.8314 132.611 79.6366 132.611 79.6366H123.055L123.054 79.6367Z" fill="#3E3F40" stroke="#3E3F40" stroke-width="1.44095" stroke-miterlimit="3.864"/>
<path d="M21.9046 80.1138L17.146 97.8224H20.7339L23.6209 87.9153L24.7131 97.8224H28.7694L33.8408 80.1138H30.1744L27.6 88.616L26.6635 80.1138H21.9046Z" fill="white"/>
<path d="M35.3778 80.1138L30.5405 97.8224H39.8237L40.9159 94.7013H35.6903L36.9382 90.3338H41.6968L42.632 87.2127H37.7963L39.0442 83.3121H44.2714L43.2563 97.8224H47.3909L52.0712 87.8366L51.0575 97.8224H55.0367L63.6176 80.1138H59.8726L55.5051 88.9288L56.3631 80.1138H52.3068L48.1722 88.7734L49.0302 80.1138L35.3778 80.1138Z" fill="white"/>
<path d="M35.3778 80.1138L30.5405 97.8224H39.8237L40.9159 94.7013H35.6903L36.9382 90.3338H41.6968L42.632 87.2127H37.7963L39.0442 83.3121H44.2714L43.2563 97.8224H47.3909L52.0712 87.8366L51.0575 97.8224H55.0367L63.6176 80.1138H59.8726L55.5051 88.9288L56.3631 80.1138H52.3068L48.1722 88.7734L49.0302 80.1138L35.3778 80.1138Z" stroke="#3E3F40" stroke-width="0.603983" stroke-miterlimit="3.864"/>
<path d="M21.9046 80.1138L17.146 97.8224H20.7339L23.6209 87.9153L24.7131 97.8224H28.7694L33.8408 80.1138H30.1744L27.6 88.616L26.6635 80.1138H21.9046Z" stroke="#3E3F40" stroke-width="0.603983" stroke-miterlimit="3.864"/>
<path d="M77.9048 83.333L74.7851 94.801C74.7851 94.801 74.4834 96.2634 74.9409 96.9854C75.2171 97.4229 75.5144 97.5701 75.9546 97.8436C76.765 98.3455 77.3511 98.4128 78.2947 98.5446C79.3505 98.6933 79.9744 98.6412 81.0246 98.4675C81.8995 98.3232 82.4085 98.2207 83.2091 97.8436C83.8653 97.5335 84.2172 97.2995 84.7696 96.8284C85.4945 96.2129 86.3301 95.0351 86.3301 94.9566C86.3301 94.9566 87.9677 89.1058 87.9677 89.1841L89.217 84.815C89.1383 84.815 89.8788 82.6697 89.6447 81.7724C89.2942 80.1348 88.202 79.7057 87.5387 79.6272C86.2909 79.3931 86.0203 79.403 85.043 79.3931C84.3728 79.3851 83.9901 79.3772 83.3269 79.4718C82.4015 79.605 81.8659 79.7258 81.0246 80.135C80.4708 80.404 80.1721 80.599 79.6996 80.993C78.8149 81.7278 77.9049 83.3332 77.9049 83.3332" fill="white"/>
<path d="M66.6568 80.1138L68.0617 90.5666L66.1113 97.8224H70.2448L72.2736 90.8007L79.5282 80.1138H75.3164L71.3373 86.4331L70.9474 80.1138H66.6568Z" fill="white"/>
<path d="M82.3957 83.6909L79.5088 93.598C79.5088 93.598 79.3574 94.0957 79.4691 94.3789C79.5656 94.6186 79.7076 94.7307 79.9374 94.8459C80.2109 94.9834 80.4127 94.9384 80.7183 94.9245C81.0939 94.9086 81.3409 94.9007 81.655 94.6904C81.8779 94.5418 81.9916 94.4186 82.1218 94.1829C82.2017 94.0398 82.1615 93.6768 82.2776 93.793C82.3173 93.8328 84.5406 85.7197 84.5406 85.7197L84.8912 84.3148C84.8912 84.3148 85.0593 83.9337 85.0088 83.6909C84.977 83.5379 84.9162 83.4583 84.8141 83.3403C84.6066 83.1046 84.3851 83.0597 84.0724 83.0275C83.799 82.9997 83.6377 83.0394 83.3699 83.1062C83.1315 83.165 82.9944 83.2083 82.7853 83.3403C82.6128 83.4484 82.3954 83.6909 82.3954 83.6909H82.3957Z" fill="#3E3F40" stroke="#3E3F40" stroke-width="0.603983" stroke-miterlimit="3.864"/>
<path d="M91.8151 80.1138L86.9778 97.8224H91.1911L93.2971 90.6449H95.1689C95.1689 90.6449 95.7395 90.7514 95.8713 91.0348C95.9611 91.2284 95.8713 91.5816 95.8713 91.5816L94.2337 97.8222H98.6795L100.553 91.1917C100.553 91.1917 100.834 90.2985 100.553 89.8652C100.398 89.6296 100.243 89.5469 100.006 89.3969C99.7536 89.2356 99.3035 89.0842 99.3035 89.0842C99.3035 89.0842 99.9905 88.7884 100.396 88.5387C100.747 88.3213 100.961 88.2065 101.254 87.9148C101.422 87.7467 101.644 87.4465 101.644 87.4465L103.049 82.6879C103.049 82.6879 103.148 82.057 103.049 81.6742C102.958 81.3252 102.857 81.1259 102.62 80.8553C102.384 80.5835 102.196 80.4753 101.878 80.3085C101.703 80.2175 101.41 80.1138 101.41 80.1138" fill="white"/>
<path d="M95.5515 83.3326L94.2644 87.4672H96.4881C96.4881 87.4672 96.8513 87.3186 97.0335 87.1561C97.3082 86.9093 97.3519 86.6723 97.5018 86.3358C97.691 85.9138 97.7403 85.653 97.8524 85.2043C97.97 84.7388 98.1596 84.4711 98.0864 83.9957C98.0546 83.791 98.0854 83.6269 97.9306 83.4882C97.8198 83.3888 97.7272 83.359 97.5801 83.3324C97.4454 83.3085 97.2284 83.3324 97.2284 83.3324L95.5515 83.3326Z" fill="#3E3F40" stroke="#3E3F40" stroke-width="0.603983" stroke-miterlimit="3.864"/>
<path d="M104.971 80.1138L99.7437 97.8224H104.308L106.687 89.982L108.13 97.8224H112.928L110.9 87.9923L117.141 80.1142H113.006L107.701 85.965L109.34 80.1142L104.971 80.1138Z" fill="white"/>
<path d="M104.971 80.1138L99.7437 97.8224H104.308L106.687 89.982L108.13 97.8224H112.928L110.9 87.9923L117.141 80.1142H113.006L107.701 85.965L109.34 80.1142L104.971 80.1138Z" stroke="#3E3F40" stroke-width="0.603983" stroke-miterlimit="3.864"/>
<path d="M91.8151 80.1138L86.9778 97.8224H91.1911L93.2971 90.6449H95.1689C95.1689 90.6449 95.7395 90.7514 95.8713 91.0348C95.9611 91.2284 95.8713 91.5816 95.8713 91.5816L94.2337 97.8222H98.6795L100.553 91.1917C100.553 91.1917 100.834 90.2985 100.553 89.8652C100.398 89.6296 100.243 89.5469 100.006 89.3969C99.7536 89.2356 99.3035 89.0842 99.3035 89.0842C99.3035 89.0842 99.9905 88.7884 100.396 88.5387C100.747 88.3213 100.961 88.2065 101.254 87.9148C101.422 87.7467 101.644 87.4465 101.644 87.4465L103.049 82.6879C103.049 82.6879 103.148 82.057 103.049 81.6742C102.958 81.3252 102.857 81.1259 102.62 80.8553C102.384 80.5835 102.196 80.4753 101.878 80.3085C101.703 80.2175 101.41 80.1138 101.41 80.1138H91.8151Z" stroke="#3E3F40" stroke-width="0.603983" stroke-miterlimit="3.864"/>
<path d="M77.9048 83.333L74.7851 94.801C74.7851 94.801 74.4834 96.2634 74.9409 96.9854C75.2171 97.4229 75.5144 97.5701 75.9546 97.8436C76.765 98.3455 77.3511 98.4128 78.2948 98.5446C79.3505 98.6933 79.9744 98.6412 81.0246 98.4675C81.8995 98.3232 82.4085 98.2207 83.2091 97.8436C83.8653 97.5335 84.2172 97.2995 84.7696 96.8284C85.4945 96.2129 86.3301 95.0351 86.3301 94.9566C86.3301 94.9566 87.9678 89.1058 87.9678 89.1841L89.2171 84.815C89.1384 84.815 89.8789 82.6697 89.6447 81.7724C89.2942 80.1348 88.202 79.7057 87.5387 79.6272C86.2909 79.3931 86.0203 79.403 85.043 79.3931C84.3728 79.3851 83.9901 79.3772 83.3269 79.4718C82.4015 79.605 81.8659 79.7258 81.0246 80.135C80.4708 80.404 80.1721 80.599 79.6997 80.993C78.8149 81.7278 77.9049 83.3332 77.9049 83.3332L77.9048 83.333Z" stroke="#3E3F40" stroke-width="0.603983" stroke-miterlimit="3.864"/>
<path d="M66.6568 80.1138L68.0616 90.5666L66.1113 97.8224H70.2448L72.2736 90.8007L79.5281 80.1138H75.316L71.3368 86.4331L70.9469 80.1138H66.6568Z" stroke="#3E3F40" stroke-width="0.603983" stroke-miterlimit="3.864"/>
<path d="M123.571 80.1138L118.617 97.8224H122.752L124.39 92.4398C124.39 92.4398 127.627 92.5956 128.485 92.4398C129.149 92.3221 129.575 92.1818 130.202 91.8537C130.896 91.492 131.329 91.269 131.801 90.6451C132.109 90.2385 132.171 89.9385 132.386 89.4758C133.436 87.203 134.181 83.3122 134.181 83.3122C134.181 83.3122 134.415 82.5719 134.258 82.1035C134.181 81.7908 134.246 81.554 134.102 81.2455C133.962 80.941 133.81 80.7996 133.557 80.5823C133.276 80.3427 133.088 80.3088 132.736 80.114H132.581" fill="white"/>
<path d="M127.069 83.3327L125.43 89.0281C125.43 89.0281 125.682 89.1724 125.86 89.2229C126.124 89.2972 126.288 89.269 126.561 89.2626C126.899 89.2547 127.101 89.2547 127.419 89.145C127.871 88.988 128.113 88.79 128.395 88.4047C128.628 88.0835 128.645 87.8383 128.785 87.4681C129.11 86.6072 129.448 85.2051 129.448 85.2051C129.448 85.2051 129.591 84.7354 129.604 84.4255C129.616 84.1044 129.727 83.8563 129.527 83.6067C129.402 83.4509 129.276 83.4203 129.096 83.3333C128.387 82.9855 127.069 83.3333 127.069 83.3333L127.069 83.3327Z" fill="#3E3F40" stroke="#3E3F40" stroke-width="0.603983" stroke-miterlimit="3.864"/>
<path d="M135.057 82.697L131.586 94.7102C131.586 94.7102 131.441 96.23 131.937 96.9731C132.229 97.412 132.504 97.5887 132.951 97.8705C133.753 98.3766 134.352 98.4047 135.291 98.5337C136.346 98.678 136.97 98.6613 138.021 98.494C138.896 98.3553 139.406 98.2527 140.206 97.87C140.867 97.5517 141.225 97.312 141.766 96.8171C142.439 96.2002 143.17 95.0223 143.17 94.9438C143.17 94.9438 144.886 89.2107 144.886 89.2878L146.212 84.6075C146.135 84.6075 146.759 83.0175 146.525 82.0332C146.396 81.4976 146.369 80.9802 145.939 80.7461C145.472 80.4349 145.098 80.1838 144.496 79.9665C143.686 79.672 143.174 79.6565 142.312 79.6147C141.368 79.5686 140.823 79.5949 139.894 79.7717C139.193 79.9049 138.797 80.0042 138.139 80.2779C137.32 80.6201 136.862 80.8724 136.189 81.4486C135.69 81.8748 135.057 82.6965 135.057 82.6965" fill="white"/>
<path d="M138.912 84.1678L136.183 93.5296C136.183 93.5296 135.948 94.5811 136.533 94.8546C136.846 94.9722 137.244 95.1026 137.704 95.0494C138.091 95.006 138.405 94.8152 138.639 94.6988C139.147 94.4253 139.147 93.6851 139.263 93.8015C139.303 93.8412 141.526 85.7282 141.526 85.7282L141.877 84.3232C141.877 84.3232 142.111 83.855 141.721 83.3096C141.642 83.1538 141.264 83.05 140.941 82.9967C140.387 82.9069 140.005 83.0751 139.536 83.3096C139.225 83.4654 138.912 84.1676 138.912 84.1676L138.912 84.1678Z" fill="#3E3F40" stroke="#3E3F40" stroke-width="0.603983" stroke-miterlimit="3.864"/>
<path d="M159.898 80.1135L159.079 83.1561H161.848L157.713 97.8219H161.809L165.943 83.3115H168.907L169.844 80.1133L159.898 80.1135Z" fill="white"/>
<path d="M153.618 86.0754H157.753C157.753 86.0754 158.035 85.0813 158.182 84.4377C158.321 83.832 158.488 83.497 158.493 82.8772C158.501 82.179 158.513 81.7121 158.143 81.1218C157.885 80.7124 157.653 80.5245 157.245 80.2638C156.819 79.9919 156.526 79.9243 156.037 79.7954C155.501 79.6551 155.183 79.6424 154.632 79.6007C153.92 79.5458 153.507 79.4997 152.799 79.6007C152.397 79.6583 152.181 79.7449 151.784 79.8348C151.299 79.9441 151.005 79.9345 150.536 80.1082C149.994 80.3089 149.726 80.5204 149.249 80.8486C148.831 81.1375 148.596 81.3099 148.235 81.6688C147.898 82.0027 147.687 82.1889 147.454 82.604C147.241 82.9867 147.188 83.2364 147.065 83.657C146.951 84.0469 146.888 84.2697 146.83 84.6707C146.762 85.1684 146.699 85.4657 146.791 85.9592C146.862 86.342 146.977 86.5411 147.141 86.8944C147.5 87.6683 147.88 88.0049 148.389 88.6891C148.758 89.1841 148.968 89.463 149.365 89.937C149.745 90.3912 150.002 90.6114 150.379 91.0685C150.613 91.3519 150.774 91.4934 150.963 91.8088C151.16 92.1371 151.286 92.3304 151.353 92.7061C151.422 93.0805 151.417 93.3146 151.314 93.682C151.232 93.9765 151.173 94.1629 150.962 94.383C150.704 94.6537 150.474 94.7574 150.104 94.8135C149.724 94.8695 149.464 94.8453 149.129 94.6565C148.894 94.5245 148.749 94.4252 148.622 94.1882C148.49 93.9442 148.505 93.7648 148.505 93.4871C148.505 93.1759 148.591 93.0091 148.661 92.7062C148.728 92.4161 148.856 91.9658 148.856 91.9658H144.565C144.565 91.9658 144.41 92.3414 144.331 92.5898C144.209 92.9769 144.18 93.2067 144.097 93.6035C143.974 94.1938 143.813 94.5219 143.824 95.1248C143.836 95.6534 143.887 95.9674 144.097 96.4511C144.272 96.8536 144.407 97.0807 144.721 97.3878C145.03 97.6879 145.271 97.7832 145.658 97.9724C146.311 98.2908 146.732 98.3735 147.451 98.48C148.264 98.5992 148.741 98.5599 149.558 98.48C150.454 98.3918 150.975 98.3214 151.82 98.0117C152.459 97.776 152.807 97.5967 153.381 97.2307C153.937 96.8762 154.255 96.6615 154.707 96.1777C155.17 95.6814 155.393 95.3491 155.681 94.735C155.984 94.09 156.089 93.6849 156.189 92.9796C156.308 92.1355 156.373 91.6181 156.149 90.7951C155.981 90.1711 155.766 89.8515 155.409 89.313C154.98 88.6667 154.611 88.3989 154.082 87.831C153.517 87.2253 153.14 86.9379 152.6 86.3097C152.232 85.8835 151.923 85.6971 151.703 85.1783C151.515 84.7366 151.39 84.4436 151.469 83.9696C151.515 83.6934 151.55 83.5098 151.742 83.3065C151.915 83.1228 152.085 83.1018 152.327 83.033C152.578 82.9631 152.731 82.9222 152.99 82.9559C153.293 82.9957 153.475 83.0891 153.693 83.3065C153.865 83.4802 153.948 83.6133 154.004 83.8519C154.07 84.1336 153.996 84.3048 153.964 84.5936C153.936 84.8992 153.918 85.0745 153.848 85.3731C153.781 85.6537 153.614 86.0756 153.614 86.0756" fill="white"/>
<path d="M153.618 86.0754H157.753C157.753 86.0754 158.035 85.0813 158.182 84.4377C158.321 83.832 158.488 83.497 158.493 82.8772C158.501 82.179 158.513 81.7121 158.143 81.1218C157.885 80.7124 157.653 80.5245 157.245 80.2638C156.819 79.9919 156.526 79.9243 156.037 79.7954C155.501 79.6551 155.183 79.6424 154.632 79.6007C153.92 79.5458 153.507 79.4997 152.799 79.6007C152.397 79.6583 152.181 79.7449 151.784 79.8348C151.299 79.9441 151.005 79.9345 150.536 80.1082C149.994 80.3089 149.726 80.5204 149.249 80.8486C148.831 81.1375 148.596 81.3099 148.235 81.6688C147.898 82.0027 147.687 82.1889 147.454 82.604C147.241 82.9867 147.188 83.2364 147.065 83.657C146.951 84.0469 146.888 84.2697 146.83 84.6707C146.762 85.1684 146.699 85.4657 146.791 85.9592C146.862 86.342 146.977 86.5411 147.141 86.8944C147.5 87.6683 147.88 88.0049 148.389 88.6891C148.758 89.1841 148.968 89.463 149.365 89.937C149.745 90.3912 150.002 90.6114 150.379 91.0685C150.613 91.3519 150.774 91.4934 150.963 91.8088C151.16 92.1371 151.286 92.3304 151.353 92.7061C151.422 93.0805 151.417 93.3146 151.314 93.682C151.232 93.9765 151.173 94.1629 150.962 94.383C150.704 94.6537 150.474 94.7574 150.104 94.8135C149.724 94.8695 149.464 94.8453 149.129 94.6565C148.894 94.5245 148.749 94.4252 148.622 94.1882C148.49 93.9442 148.505 93.7648 148.505 93.4871C148.505 93.1759 148.591 93.0091 148.661 92.7062C148.728 92.4161 148.856 91.9658 148.856 91.9658H144.565C144.565 91.9658 144.41 92.3414 144.331 92.5898C144.209 92.9769 144.18 93.2067 144.097 93.6035C143.974 94.1938 143.813 94.5219 143.824 95.1248C143.836 95.6534 143.887 95.9674 144.097 96.4511C144.272 96.8536 144.407 97.0807 144.721 97.3878C145.03 97.6879 145.271 97.7832 145.658 97.9724C146.311 98.2908 146.732 98.3735 147.451 98.48C148.264 98.5992 148.741 98.5599 149.558 98.48C150.454 98.3918 150.975 98.3214 151.82 98.0117C152.459 97.776 152.807 97.5967 153.381 97.2307C153.937 96.8762 154.255 96.6615 154.707 96.1777C155.17 95.6814 155.393 95.3491 155.681 94.735C155.984 94.09 156.089 93.6849 156.189 92.9796C156.308 92.1355 156.373 91.6181 156.149 90.7951C155.981 90.1711 155.766 89.8515 155.409 89.313C154.98 88.6667 154.611 88.3989 154.082 87.831C153.517 87.2253 153.14 86.9379 152.6 86.3097C152.232 85.8835 151.923 85.6971 151.703 85.1783C151.515 84.7366 151.39 84.4436 151.469 83.9696C151.515 83.6934 151.55 83.5098 151.742 83.3065C151.915 83.1228 152.085 83.1018 152.327 83.033C152.578 82.9631 152.731 82.9222 152.99 82.9559C153.293 82.9957 153.475 83.0891 153.693 83.3065C153.865 83.4802 153.948 83.6133 154.004 83.8519C154.07 84.1336 153.996 84.3048 153.964 84.5936C153.936 84.8992 153.918 85.0745 153.848 85.3731C153.781 85.6537 153.614 86.0756 153.614 86.0756L153.618 86.0754Z" stroke="#3E3F40" stroke-width="0.603983" stroke-miterlimit="3.864"/>
<path d="M135.057 82.697L131.586 94.7102C131.586 94.7102 131.441 96.23 131.937 96.9731C132.229 97.412 132.504 97.5887 132.951 97.8705C133.753 98.3766 134.352 98.4047 135.291 98.5337C136.346 98.678 136.97 98.6613 138.021 98.494C138.896 98.3553 139.406 98.2527 140.206 97.87C140.867 97.5517 141.225 97.312 141.766 96.8171C142.439 96.2002 143.17 95.0223 143.17 94.9438C143.17 94.9438 144.886 89.2107 144.886 89.2878L146.212 84.6075C146.135 84.6075 146.759 83.0175 146.525 82.0332C146.396 81.4976 146.369 80.9802 145.939 80.7461C145.472 80.4349 145.098 80.1838 144.496 79.9665C143.686 79.672 143.174 79.6565 142.312 79.6147C141.368 79.5686 140.823 79.5949 139.894 79.7717C139.193 79.9049 138.797 80.0042 138.139 80.2779C137.32 80.6201 136.862 80.8724 136.189 81.4486C135.69 81.8748 135.057 82.6965 135.057 82.6965L135.057 82.697Z" stroke="#3E3F40" stroke-width="0.603983" stroke-miterlimit="3.864"/>
<path d="M123.571 80.1138L118.617 97.8224H122.752L124.39 92.4398C124.39 92.4398 127.627 92.5956 128.485 92.4398C129.149 92.3221 129.575 92.1818 130.202 91.8537C130.896 91.492 131.329 91.269 131.801 90.6451C132.109 90.2385 132.171 89.9385 132.386 89.4758C133.436 87.203 134.181 83.3122 134.181 83.3122C134.181 83.3122 134.415 82.5719 134.258 82.1035C134.181 81.7908 134.246 81.554 134.102 81.2455C133.962 80.941 133.81 80.7996 133.557 80.5823C133.276 80.3427 133.088 80.3088 132.736 80.114H132.581L123.571 80.1138Z" stroke="#3E3F40" stroke-width="0.603983" stroke-miterlimit="3.864"/>
<path d="M159.898 80.1135L159.079 83.1561H161.848L157.713 97.8219H161.809L165.943 83.3115H168.907L169.844 80.1133L159.898 80.1135Z" stroke="#3E3F40" stroke-width="0.603983" stroke-miterlimit="3.864"/>
</g>
<defs>
<clipPath id="clip0_4395_15979">
<rect width="161.98" height="26.5541" fill="white" transform="translate(9.15002 76.6997)"/>
</clipPath>
</defs>
</svg>
