<svg width="180" height="180" viewBox="0 0 180 180" fill="none" xmlns="http://www.w3.org/2000/svg">
<rect x="0.005" y="0.005" width="179.99" height="179.99" stroke="#E3E3E3" stroke-opacity="0.01" stroke-width="0.01"/>
<g clip-path="url(#clip0_4230_12165)">
<path d="M41.2029 87.1635H55.3032V79.9751H41.2029V87.1635Z" fill="white"/>
<path d="M13.0275 79.9751V87.1635H20.065V101.54H27.1026V87.1635H34.1653V79.9751H13.0275Z" fill="white"/>
<path d="M34.1653 101.54H55.3031V94.352H41.2029V87.1636H34.1653V101.54Z" fill="white"/>
<path d="M73.2741 85.4043H62.9188V88.3953H66.3873V97.7703H69.8056V88.3953H73.2741V85.4043Z" fill="white"/>
<path d="M77.1699 88.2944C74.7319 88.2944 72.9222 89.9282 72.9222 93.1453C72.9222 95.9855 74.4554 97.9711 77.2453 97.9711C78.7031 97.9711 79.8844 97.5941 81.0154 96.9155L79.809 94.8796C78.879 95.3572 78.2256 95.5331 77.3961 95.5331C76.5416 95.5331 75.9383 95.0807 75.8127 94.0502H81.2668C81.2919 93.8994 81.2919 93.6983 81.2919 93.4218C81.3171 89.9784 79.7336 88.2944 77.1699 88.2944ZM75.8629 92.0646C75.9635 91.1346 76.3656 90.657 77.0945 90.657C78.0245 90.657 78.3512 91.1346 78.502 92.0646H75.8629Z" fill="white"/>
<path d="M87.3493 95.3823C86.4947 95.3823 86.0423 94.6283 86.0423 93.1453C86.0423 91.6875 86.4444 90.8581 87.2739 90.8581C87.9525 90.8581 88.2541 91.2351 88.7065 92.0646L90.8932 90.4057C90.0889 89.0987 89.0835 88.2944 87.3241 88.2944C84.3583 88.2944 82.9005 90.2549 82.9005 93.0951C82.9005 96.2117 84.5342 97.946 87.2487 97.946C88.8825 97.946 89.8878 97.3176 90.9686 95.7342L88.9579 94.1507C88.3546 95.0555 87.9525 95.3823 87.3493 95.3823Z" fill="white"/>
<path d="M98.3078 88.2945C97.2019 88.2945 96.5484 88.6715 95.9704 89.0988V84.9014L92.7783 86.1832V97.7952H95.9704V92.4919C95.9704 91.3357 96.3725 91.009 97.0511 91.009C97.7046 91.009 98.1068 91.3357 98.1068 92.517V97.7952H101.299V92.1149C101.299 89.6769 100.319 88.2945 98.3078 88.2945Z" fill="white"/>
<path d="M108.965 94.9803C107.482 94.9803 106.879 93.4723 106.879 91.5872C106.879 89.6267 107.507 88.1941 108.94 88.1941C110.071 88.1941 110.498 88.923 110.925 90.0792L114.042 88.8476C113.187 86.5101 111.981 85.2031 108.94 85.2031C105.622 85.2031 103.284 87.616 103.284 91.5872C103.284 95.2568 105.245 97.9713 108.914 97.9713C111.855 97.9713 113.238 96.3878 114.067 94.7792L111.177 93.2461C110.498 94.4022 110.046 94.9803 108.965 94.9803Z" fill="white"/>
<path d="M119.194 89.1741V88.4955H116.002V97.77H119.194V92.7181C119.194 91.587 119.672 91.21 120.451 91.21C121.079 91.21 121.532 91.5368 121.934 91.9892L122.688 88.6966C122.311 88.4704 121.859 88.2944 121.18 88.2944C120.351 88.2944 119.722 88.6463 119.194 89.1741Z" fill="white"/>
<path d="M129.499 93.7989C129.499 94.9551 129.097 95.2818 128.444 95.2818C127.79 95.2818 127.388 94.9551 127.388 93.7738V88.4956H124.196V94.1759C124.196 96.6139 125.176 97.9712 127.212 97.9712C128.293 97.9712 128.972 97.5942 129.524 97.1669V97.7952H132.717V88.5207H129.524V93.7989" fill="white"/>
<path d="M140.533 88.2944C139.427 88.2944 138.774 88.6715 138.196 89.0987V88.4704H135.004V97.7449H138.196V92.4416C138.196 91.2854 138.598 90.9587 139.277 90.9587C139.93 90.9587 140.332 91.2854 140.332 92.4667V97.7449H143.524V92.0646C143.524 89.6768 142.569 88.2944 140.533 88.2944Z" fill="white"/>
<path d="M149.858 95.3823C149.003 95.3823 148.551 94.6283 148.551 93.1453C148.551 91.6875 148.953 90.8581 149.758 90.8581C150.436 90.8581 150.738 91.2351 151.19 92.0646L153.377 90.4057C152.573 89.0987 151.567 88.2944 149.808 88.2944C146.842 88.2944 145.384 90.2549 145.384 93.0951C145.384 96.2117 147.018 97.946 149.732 97.946C151.366 97.946 152.371 97.3176 153.452 95.7342L151.441 94.1507C150.889 95.0555 150.461 95.3823 149.858 95.3823Z" fill="white"/>
<path d="M160.817 88.2945C159.711 88.2945 159.057 88.6715 158.479 89.0988V84.9014L155.287 86.1832V97.7952H158.479V92.4919C158.479 91.3357 158.881 91.009 159.56 91.009C160.213 91.009 160.616 91.3357 160.616 92.517V97.7952H163.808V92.1149C163.833 89.6769 162.853 88.2945 160.817 88.2945Z" fill="white"/>
<rect x="-51.7482" y="-53.6263" width="200.142" height="200.142" stroke="#E3E3E3" stroke-opacity="0.01" stroke-width="0.0111196"/>
</g>
<defs>
<clipPath id="clip0_4230_12165">
<rect width="163.875" height="163.875" fill="white" transform="translate(7.875 9.75)"/>
</clipPath>
</defs>
</svg>
