<svg width="180" height="180" viewBox="0 0 180 180" fill="none" xmlns="http://www.w3.org/2000/svg">
<rect x="0.005" y="0.005" width="179.99" height="179.99" stroke="#E3E3E3" stroke-opacity="0.01" stroke-width="0.01"/>
<g clip-path="url(#clip0_4230_12168)">
<path d="M53.5259 71.8849L51.444 71.553H51.2792V69.9585H62.4964V71.553H62.1877C60.9019 71.3928 60.2613 71.8779 60.2613 73.1545V73.9575L65.0657 98.6548L67.9529 82.4615L66.3515 74.2871C66.0288 72.1982 65.2328 71.3998 63.7984 71.56H63.6313V69.9585H74.5398V71.553H74.3866C72.6227 71.3928 71.8196 72.0358 71.8196 73.4794L76.6287 98.4877H76.9466L81.2613 74.7675V73.8066C81.2613 72.0427 80.4559 71.3998 78.6943 71.56H78.2139V69.9585H87.6625V71.553H87.1983L84.933 71.8849L83.4917 75.0855L75.9579 110.828H73.7275L69.0763 87.4283L64.2626 110.835H61.8604L54.6446 74.2871L53.5259 71.8849Z" fill="white"/>
<path d="M104.339 69.4781V83.5826H102.897V83.1021C102.897 75.0886 100.654 71.0811 96.1664 71.0796C93.119 70.9218 91.5245 72.5232 91.6731 76.0511C91.6627 77.8876 92.2276 79.6812 93.2884 81.1804L98.0975 85.5089L104.027 91.4413C105.631 93.8435 106.432 96.8886 106.432 100.261C106.432 106.992 103.227 110.362 96.9741 110.362C94.5696 110.362 92.1651 109.556 89.7629 107.795L88.7974 110.204H87.6741V95.9231H88.9599V96.4035C88.9599 100.727 89.9161 103.937 91.6823 106.179C93.1283 107.783 94.7274 108.586 96.4937 108.586C100.182 108.586 102.103 106.497 102.103 102.171C102.103 98.1651 99.6989 94.3185 94.8899 90.6313C89.9161 86.9433 87.3561 82.9373 87.3561 78.2885C87.1959 75.3989 88.1615 73.1568 89.9091 71.5577C91.3551 69.7984 93.2884 69 95.6837 69C98.0789 69 100.175 69.7984 102.257 71.553L103.378 69.4642L104.339 69.4781Z" fill="white"/>
<path d="M115.57 100.737C115.57 103.139 114.449 104.422 112.042 104.583L113.161 107.63C113.552 108.097 114.043 108.469 114.599 108.719C115.154 108.968 115.759 109.089 116.368 109.071L119.253 107.788L120.056 103.304V73.9645C119.894 72.3653 119.253 71.5623 117.814 71.5623H116.684V69.9585H129.031V71.553H127.91C126.469 71.553 125.664 72.356 125.821 73.9552V102.19C125.654 107.964 122.609 110.847 116.679 111.009C114.59 110.844 112.826 110.208 111.708 108.76C109.946 106.996 109.155 104.912 109.155 102.187L110.438 98.982L112.527 97.861C114.288 97.861 115.41 98.8219 115.574 100.746" fill="white"/>
</g>
<defs>
<clipPath id="clip0_4230_12168">
<rect width="77.7474" height="42" fill="white" transform="translate(51.2792 69)"/>
</clipPath>
</defs>
</svg>
